<?xml version="1.0" encoding="UTF-8"?><svg xmlns="http://www.w3.org/2000/svg" xmlns:xlink="http://www.w3.org/1999/xlink" fill-opacity="1" color-rendering="auto" color-interpolation="auto" text-rendering="auto" stroke="black" stroke-linecap="square" width="36" stroke-miterlimit="10" shape-rendering="auto" stroke-opacity="1" fill="black" stroke-dasharray="none" font-weight="normal" stroke-width="1" height="36" font-family="'Dialog'" font-style="normal" stroke-linejoin="miter" font-size="12px" stroke-dashoffset="0" image-rendering="auto">
  <!--Generated by ySVG 2.5-->
  <defs id="genericDefs"/>
  <g>
    <defs id="defs1">
      <clipPath clipPathUnits="userSpaceOnUse" id="clipPath1">
        <path d="M0 0 L36 0 L36 36 L0 36 L0 0 Z"/>
      </clipPath>
      <clipPath clipPathUnits="userSpaceOnUse" id="clipPath2">
        <path d="M-83 -52 L510.75 -52 L510.75 541.75 L-83 541.75 L-83 -52 Z"/>
      </clipPath>
    </defs>
    <g text-rendering="geometricPrecision" shape-rendering="geometricPrecision" transform="matrix(0.0606,0,0,0.0606,5.0324,3.1528)">
      <rect x="224" width="94" height="94" y="119" clip-path="url(#clipPath2)" stroke="none"/>
    </g>
    <g fill="white" text-rendering="geometricPrecision" shape-rendering="geometricPrecision" transform="matrix(0.0606,0,0,0.0606,5.0324,3.1528)" stroke="white">
      <rect fill="none" x="224" width="94" height="94" y="119" clip-path="url(#clipPath2)"/>
      <rect x="64" width="81" height="81" y="119" clip-path="url(#clipPath2)" stroke="none"/>
      <rect x="64" y="119" clip-path="url(#clipPath2)" fill="none" width="81" height="81" stroke="black"/>
      <rect x="230" width="81" height="81" y="285" clip-path="url(#clipPath2)" stroke="none"/>
      <rect x="230" y="285" clip-path="url(#clipPath2)" fill="none" width="81" height="81" stroke="black"/>
      <rect x="230" width="81" height="81" y="-34" clip-path="url(#clipPath2)" stroke="none"/>
      <rect x="230" y="-34" clip-path="url(#clipPath2)" fill="none" width="81" height="81" stroke="black"/>
    </g>
    <g text-rendering="geometricPrecision" stroke-miterlimit="1.45" shape-rendering="geometricPrecision" transform="matrix(0.0606,0,0,0.0606,5.0324,3.1528)" stroke-linecap="butt">
      <line y2="159" fill="none" x1="271" clip-path="url(#clipPath2)" x2="105" y1="166"/>
      <line y2="326" fill="none" x1="271" clip-path="url(#clipPath2)" x2="271" y1="166"/>
      <line y2="5" fill="none" x1="105" clip-path="url(#clipPath2)" x2="271" y1="159"/>
    </g>
  </g>
</svg>
