<svg
   xmlns:svg="http://www.w3.org/2000/svg"
   xmlns="http://www.w3.org/2000/svg"
   version="1.1"
   viewBox="0 0 200 200">
   <defs>
		<clipPath
		   clipPathUnits="userSpaceOnUse"
		   id="clipPath3715"><path
			 d="M 0,226.772 H 340.157 V 0 H 0 Z" />
		</clipPath>
	</defs>
	 
	<g transform="matrix(1.3333333,0,0,-1.3333333,0,200)">
		<g transform="matrix(1.2097945,0,0,1.2098043,-130.76052,-62.174626)">
			<g clip-path="url(#clipPath3715)">
				<g transform="translate(210.9689,51.3923)">
					<path
					 d="m 0,0 h -81.78 c -11.648,0 -21.104,9.456 -21.104,21.104 v 81.779 c 0,11.641 9.446,21.093 21.104,21.104 H 0 c 11.658,-0.011 21.104,-9.463 21.104,-21.104 V 21.104 C 21.104,9.459 11.652,0.004 0,0 m -86.817,61.802 -0.002,0.167 c 0,18.746 15.219,33.966 33.965,33.966 18.748,0 33.967,-15.22 33.967,-33.966 0,-18.74 -15.21,-33.956 -33.951,-33.966 h -0.015 -0.01 c -3.229,0.001 -6.353,0.454 -9.313,1.308 -9.172,2.854 -14.64,9.386 -14.64,9.386 v -0.789 l -0.003,0.003 v -16.78 c 0,-2.761 -2.239,-4.999 -5,-4.999 h -10e-4 c -2.761,0 -4.999,2.238 -4.999,4.999 v 40.63 z M 18.957,58.855 c 1.55,1.836 1.55,4.521 0,6.356 -6.852,8.113 -24.449,28.951 -24.449,28.951 -1.782,2.109 -4.937,2.375 -7.045,0.593 0,0 -10e-4,0 -10e-4,-10e-4 -2.11,-1.781 -2.376,-4.935 -0.595,-7.045 L 8.552,62.033 -13.133,36.357 c -1.781,-2.109 -1.515,-5.263 0.595,-7.045 h 10e-4 c 2.108,-1.782 5.263,-1.516 7.045,0.593 0,0 17.597,20.838 24.449,28.95 m -71.811,27.057 c 13.215,0 23.944,-10.729 23.944,-23.943 0,-13.214 -10.729,-23.943 -23.944,-23.943 -13.213,0 -23.942,10.729 -23.942,23.943 0,13.214 10.729,23.943 23.942,23.943"
					 style="fill:rgba(55, 129, 196, 1);fill-opacity:1;fill-rule:evenodd;stroke:none"
					 id="path3719" />
				</g>
			</g>
		</g>	 
	</g>		 
</svg>